<svg width="1724" height="1078" viewBox="0 0 1724 1078" fill="none" xmlns="http://www.w3.org/2000/svg">
<path d="M168.797 358C141.416 381 102.982 419.4 -2 401V1034H1724V89C1662.73 116.333 1597.08 245.7 1391.92 256.5C1135.48 270 1026.79 207 859.497 161C692.207 115 596.54 125 477.834 161C382.869 189.8 232.24 304.333 168.797 358Z" fill="black" fill-opacity="0.18"/>
<path d="M168.797 311C141.416 334 102.982 372.4 -2 354V987H1724V42C1662.73 69.3333 1597.08 198.7 1391.92 209.5C1135.48 223 1026.79 160 859.497 114C692.207 68 596.54 78 477.834 114C382.869 142.8 232.24 257.333 168.797 311Z" fill="black" fill-opacity="0.18"/>
<path d="M168.797 269C141.416 292 102.982 330.4 -2 312V945H1724V0C1662.73 27.3333 1597.08 156.7 1391.92 167.5C1135.48 181 1026.79 118 859.497 72C692.207 26 596.54 36 477.834 72C382.869 100.8 232.24 215.333 168.797 269Z" fill="black" fill-opacity="0.18"/>
<path d="M168.797 402C141.416 425 102.982 463.4 -2 445V1078H1724V133C1662.73 160.333 1597.08 289.7 1391.92 300.5C1135.48 314 1026.79 251 859.497 205C692.207 159 596.54 169 477.834 205C382.869 233.8 232.24 348.333 168.797 402Z" fill="black"/>
</svg>
