<svg width="491" height="615" viewBox="0 0 491 615" fill="none" xmlns="http://www.w3.org/2000/svg">
<path d="M418.088 545.726C581.053 367.032 453.343 105.919 192.335 19.3247C-52.8342 -62.0145 -68.6359 129.446 -96.3749 317.091C-135.23 579.937 276.786 700.667 418.088 545.726Z" fill="url(#paint0_radial_225_81)"/>
<path d="M418.088 545.726C581.053 367.032 453.343 105.919 192.335 19.3247C-52.8342 -62.0145 -68.6359 129.446 -96.3749 317.091C-135.23 579.937 276.786 700.667 418.088 545.726Z" fill="url(#paint1_radial_225_81)"/>
<path d="M418.088 545.726C581.053 367.032 453.343 105.919 192.335 19.3247C-52.8342 -62.0145 -68.6359 129.446 -96.3749 317.091C-135.23 579.937 276.786 700.667 418.088 545.726Z" fill="url(#paint2_radial_225_81)"/>
<path d="M418.088 545.726C581.053 367.032 453.343 105.919 192.335 19.3247C-52.8342 -62.0145 -68.6359 129.446 -96.3749 317.091C-135.23 579.937 276.786 700.667 418.088 545.726Z" fill="url(#paint3_radial_225_81)"/>
<defs>
<radialGradient id="paint0_radial_225_81" cx="0" cy="0" r="1" gradientUnits="userSpaceOnUse" gradientTransform="translate(360.9 332.001) rotate(165.842) scale(414.367 390.167)">
<stop stop-color="#00FFFF"/>
<stop offset="1" stop-color="#00C4FF" stop-opacity="0"/>
</radialGradient>
<radialGradient id="paint1_radial_225_81" cx="0" cy="0" r="1" gradientUnits="userSpaceOnUse" gradientTransform="translate(130.598 193.307) rotate(42.3128) scale(442.964 349.59)">
<stop stop-color="#FF6666"/>
<stop offset="0.695057" stop-color="#FF00B8" stop-opacity="0.239583"/>
<stop offset="1" stop-color="#0052CD" stop-opacity="0"/>
</radialGradient>
<radialGradient id="paint2_radial_225_81" cx="0" cy="0" r="1" gradientUnits="userSpaceOnUse" gradientTransform="translate(233.867 632.616) rotate(-87.0802) scale(368.646 350.929)">
<stop stop-color="#620CE1"/>
<stop offset="1" stop-color="#620CE1" stop-opacity="0"/>
</radialGradient>
<radialGradient id="paint3_radial_225_81" cx="0" cy="0" r="1" gradientUnits="userSpaceOnUse" gradientTransform="translate(66.9314 -144.379) rotate(66.309) scale(489.784 526.488)">
<stop stop-color="#FF00E5"/>
<stop offset="0.228083" stop-color="#FF00E5" stop-opacity="0.771917"/>
<stop offset="1" stop-color="white" stop-opacity="0"/>
</radialGradient>
</defs>
</svg>
