<svg width="66" height="66" viewBox="0 0 66 66" fill="none" xmlns="http://www.w3.org/2000/svg">
<path d="M66 33C66 26.4732 64.0646 20.093 60.4385 14.6662C56.8124 9.23937 51.6585 5.00968 45.6286 2.51199C39.5986 0.0142984 32.9634 -0.639212 26.562 0.6341C20.1607 1.90741 14.2806 5.05036 9.66549 9.66549C5.05036 14.2806 1.90741 20.1607 0.6341 26.562C-0.639212 32.9634 0.0142984 39.5986 2.51199 45.6286C5.00968 51.6585 9.23937 56.8124 14.6662 60.4385C20.093 64.0646 26.4732 66 33 66C41.7488 65.9891 50.1361 62.5088 56.3225 56.3225C62.5088 50.1361 65.9891 41.7488 66 33ZM29.1923 19.0385C29.1923 18.2854 29.4156 17.5492 29.834 16.923C30.2524 16.2969 30.8471 15.8088 31.5429 15.5206C32.2386 15.2324 33.0042 15.157 33.7429 15.3039C34.4815 15.4509 35.1599 15.8135 35.6925 16.346C36.225 16.8785 36.5876 17.557 36.7345 18.2956C36.8815 19.0342 36.806 19.7998 36.5179 20.4956C36.2297 21.1914 35.7416 21.7861 35.1154 22.2045C34.4893 22.6228 33.7531 22.8462 33 22.8462C31.9901 22.8462 31.0216 22.445 30.3076 21.7309C29.5935 21.0168 29.1923 20.0483 29.1923 19.0385ZM29.1923 33C29.1923 32.2469 29.4156 31.5107 29.834 30.8846C30.2524 30.2584 30.8471 29.7704 31.5429 29.4822C32.2386 29.194 33.0042 29.1186 33.7429 29.2655C34.4815 29.4124 35.1599 29.775 35.6925 30.3076C36.225 30.8401 36.5876 31.5185 36.7345 32.2572C36.8815 32.9958 36.806 33.7614 36.5179 34.4571C36.2297 35.1529 35.7416 35.7476 35.1154 36.166C34.4893 36.5844 33.7531 36.8077 33 36.8077C31.9901 36.8077 31.0216 36.4065 30.3076 35.6925C29.5935 34.9784 29.1923 34.0099 29.1923 33ZM29.1923 46.9615C29.1923 46.2085 29.4156 45.4723 29.834 44.8461C30.2524 44.2199 30.8471 43.7319 31.5429 43.4437C32.2386 43.1555 33.0042 43.0801 33.7429 43.227C34.4815 43.3739 35.1599 43.7366 35.6925 44.2691C36.225 44.8016 36.5876 45.4801 36.7345 46.2187C36.8815 46.9573 36.806 47.7229 36.5179 48.4187C36.2297 49.1144 35.7416 49.7091 35.1154 50.1275C34.4893 50.5459 33.7531 50.7692 33 50.7692C31.9901 50.7692 31.0216 50.3681 30.3076 49.654C29.5935 48.9399 29.1923 47.9714 29.1923 46.9615Z" fill="#F8F8F8"/>
</svg>
