<svg width="40" height="39" viewBox="0 0 40 39" fill="none" xmlns="http://www.w3.org/2000/svg">
<path d="M32.5 6.09375H7.5C5.42893 6.09375 3.75 7.73071 3.75 9.75V31.6875C3.75 33.7068 5.42893 35.3438 7.5 35.3438H32.5C34.5711 35.3438 36.25 33.7068 36.25 31.6875V9.75C36.25 7.73071 34.5711 6.09375 32.5 6.09375Z" stroke="white" stroke-width="5" stroke-linejoin="round"/>
<path d="M23.125 19.5C24.1605 19.5 25 18.6815 25 17.6719C25 16.6622 24.1605 15.8438 23.125 15.8438C22.0895 15.8438 21.25 16.6622 21.25 17.6719C21.25 18.6815 22.0895 19.5 23.125 19.5Z" fill="white"/>
<path d="M29.375 19.5C30.4105 19.5 31.25 18.6815 31.25 17.6719C31.25 16.6622 30.4105 15.8438 29.375 15.8438C28.3395 15.8438 27.5 16.6622 27.5 17.6719C27.5 18.6815 28.3395 19.5 29.375 19.5Z" fill="white"/>
<path d="M23.125 25.5938C24.1605 25.5938 25 24.7753 25 23.7656C25 22.756 24.1605 21.9375 23.125 21.9375C22.0895 21.9375 21.25 22.756 21.25 23.7656C21.25 24.7753 22.0895 25.5938 23.125 25.5938Z" fill="white"/>
<path d="M29.375 25.5938C30.4105 25.5938 31.25 24.7753 31.25 23.7656C31.25 22.756 30.4105 21.9375 29.375 21.9375C28.3395 21.9375 27.5 22.756 27.5 23.7656C27.5 24.7753 28.3395 25.5938 29.375 25.5938Z" fill="white"/>
<path d="M10.625 25.5938C11.6605 25.5938 12.5 24.7753 12.5 23.7656C12.5 22.756 11.6605 21.9375 10.625 21.9375C9.58947 21.9375 8.75 22.756 8.75 23.7656C8.75 24.7753 9.58947 25.5938 10.625 25.5938Z" fill="white"/>
<path d="M16.875 25.5938C17.9105 25.5938 18.75 24.7753 18.75 23.7656C18.75 22.756 17.9105 21.9375 16.875 21.9375C15.8395 21.9375 15 22.756 15 23.7656C15 24.7753 15.8395 25.5938 16.875 25.5938Z" fill="white"/>
<path d="M10.625 31.6875C11.6605 31.6875 12.5 30.869 12.5 29.8594C12.5 28.8497 11.6605 28.0312 10.625 28.0312C9.58947 28.0312 8.75 28.8497 8.75 29.8594C8.75 30.869 9.58947 31.6875 10.625 31.6875Z" fill="white"/>
<path d="M16.875 31.6875C17.9105 31.6875 18.75 30.869 18.75 29.8594C18.75 28.8497 17.9105 28.0312 16.875 28.0312C15.8395 28.0312 15 28.8497 15 29.8594C15 30.869 15.8395 31.6875 16.875 31.6875Z" fill="white"/>
<path d="M23.125 31.6875C24.1605 31.6875 25 30.869 25 29.8594C25 28.8497 24.1605 28.0312 23.125 28.0312C22.0895 28.0312 21.25 28.8497 21.25 29.8594C21.25 30.869 22.0895 31.6875 23.125 31.6875Z" fill="white"/>
<path d="M10 3.65625V6.09375M30 3.65625V6.09375" stroke="white" stroke-width="5" stroke-linecap="round" stroke-linejoin="round"/>
<path d="M36.25 12.1875H3.75" stroke="white" stroke-width="5" stroke-linejoin="round"/>
</svg>
