<svg width="60" height="60" viewBox="0 0 60 60" fill="none" xmlns="http://www.w3.org/2000/svg">
<g clip-path="url(#clip0_307_1221)">
<path d="M24.45 23.8333C29.9728 23.8333 34.4499 19.3562 34.4499 13.8333C34.4499 8.3105 29.9728 3.83334 24.45 3.83334C18.9271 3.83334 14.45 8.3105 14.45 13.8333C14.45 19.3562 18.9271 23.8333 24.45 23.8333Z" fill="white"/>
<path d="M27.4 53.0333C26.8493 52.4886 26.4899 51.78 26.3757 51.0138C26.2615 50.2476 26.3987 49.465 26.7667 48.7833L27.65 47.1167L25.8334 46.5667C25.0926 46.3348 24.4476 45.8676 23.9964 45.2359C23.5452 44.6042 23.3124 43.8426 23.3334 43.0667V39.65C23.332 38.8774 23.5791 38.1249 24.0383 37.5037C24.4975 36.8824 25.1444 36.4253 25.8834 36.2L27.7 35.65L26.8334 33.9833C26.4761 33.311 26.3402 32.543 26.445 31.7889C26.5497 31.0347 26.8898 30.3329 27.4167 29.7833C26.1345 29.6152 24.8432 29.5262 23.55 29.5167C19.7306 29.4267 15.9383 30.1808 12.4438 31.7249C8.94922 33.2691 5.83846 35.5654 3.33337 38.45V51.3667C3.33337 51.8087 3.50897 52.2326 3.82153 52.5452C4.13409 52.8577 4.55801 53.0333 5.00004 53.0333H27.4Z" fill="white"/>
<path d="M56.1667 39.1L52.8333 38.1C52.6023 37.2769 52.278 36.4828 51.8667 35.7333L53.5333 32.6333C53.5977 32.5183 53.6213 32.3848 53.6001 32.2546C53.5789 32.1245 53.5142 32.0054 53.4166 31.9167L51 29.4833C50.9069 29.3928 50.7882 29.333 50.66 29.3121C50.5318 29.2912 50.4003 29.3103 50.2833 29.3667L47.2 31.0333C46.441 30.6211 45.6426 30.286 44.8166 30.0333L43.8 26.7C43.7552 26.5771 43.6735 26.4711 43.5661 26.3965C43.4587 26.3218 43.3308 26.2823 43.2 26.2833H39.7333C39.6034 26.287 39.4777 26.3305 39.3733 26.408C39.269 26.4855 39.191 26.5933 39.15 26.7167L38.15 30.05C37.3081 30.295 36.4972 30.6361 35.7333 31.0667L32.7166 29.4C32.5994 29.3377 32.4655 29.3138 32.3339 29.3317C32.2023 29.3497 32.0796 29.4086 31.9833 29.5L29.5333 31.9C29.4368 31.993 29.3733 32.1148 29.3522 32.2471C29.3312 32.3795 29.3538 32.515 29.4166 32.6333L31.0833 35.6667C30.6368 36.4195 30.2736 37.2186 30 38.05L26.6667 39.0667C26.5406 39.1031 26.4299 39.1799 26.3516 39.2853C26.2734 39.3906 26.2318 39.5188 26.2333 39.65V43.0667C26.2318 43.1979 26.2734 43.326 26.3516 43.4314C26.4299 43.5368 26.5406 43.6136 26.6667 43.65L30 44.6667C30.2498 45.483 30.585 46.2706 31 47.0167L29.3333 50.1833C29.2705 50.3017 29.2479 50.4372 29.2689 50.5695C29.2899 50.7018 29.3535 50.8237 29.45 50.9167L31.9333 53.3333C32.0296 53.4248 32.1523 53.4837 32.2839 53.5016C32.4155 53.5196 32.5494 53.4957 32.6667 53.4333L35.7833 51.7667C36.525 52.1656 37.3072 52.4841 38.1167 52.7167L39.1166 56.1333C39.1586 56.2594 39.2391 56.369 39.3468 56.4468C39.4544 56.5245 39.5838 56.5665 39.7166 56.5667H43.1333C43.2633 56.563 43.389 56.5195 43.4933 56.442C43.5977 56.3645 43.6756 56.2567 43.7166 56.1333L44.7167 52.7167C45.5164 52.487 46.2879 52.1683 47.0166 51.7667L50.1667 53.4333C50.2839 53.4957 50.4178 53.5196 50.5494 53.5016C50.681 53.4837 50.8037 53.4248 50.9 53.3333L53.3333 50.9167C53.4248 50.8204 53.4836 50.6977 53.5016 50.5661C53.5195 50.4345 53.4957 50.3006 53.4333 50.1833L51.7666 47.05C52.1653 46.3198 52.4839 45.5487 52.7166 44.75L56.05 43.7333C56.1752 43.6931 56.2853 43.6157 56.3656 43.5116C56.446 43.4074 56.4928 43.2814 56.5 43.15V39.7C56.5041 39.5792 56.4752 39.4595 56.4165 39.3538C56.3577 39.2481 56.2714 39.1604 56.1667 39.1ZM41.45 46.9667C40.3483 46.97 39.2704 46.6463 38.3528 46.0366C37.4352 45.427 36.7191 44.5587 36.2952 43.5419C35.8713 42.525 35.7587 41.4052 35.9716 40.3243C36.1845 39.2433 36.7133 38.2499 37.4912 37.4697C38.269 36.6895 39.2609 36.1577 40.3412 35.9416C41.4214 35.7254 42.5416 35.8347 43.5597 36.2555C44.5779 36.6763 45.4482 37.3898 46.0607 38.3056C46.6731 39.2214 47 40.2983 47 41.4C47 42.8735 46.4158 44.2869 45.3754 45.3304C44.3351 46.3738 42.9235 46.9623 41.45 46.9667Z" fill="white"/>
</g>
<defs>
<clipPath id="clip0_307_1221">
<rect width="60" height="60" rx="20" fill="white"/>
</clipPath>
</defs>
</svg>
