<svg width="31" height="30" viewBox="0 0 31 30" fill="none" xmlns="http://www.w3.org/2000/svg">
<path d="M25.3167 26.25L17.1792 18.375C16.5333 18.875 15.7906 19.2708 14.951 19.5625C14.1115 19.8542 13.2181 20 12.2708 20C9.92431 20 7.93858 19.2133 6.31367 17.64C4.68875 16.0667 3.87586 14.145 3.875 11.875C3.875 9.60417 4.68789 7.6825 6.31367 6.11C7.93944 4.5375 9.92517 3.75083 12.2708 3.75C14.6174 3.75 16.6035 4.53667 18.2293 6.11C19.8551 7.68333 20.6675 9.605 20.6667 11.875C20.6667 12.7917 20.516 13.6562 20.2146 14.4688C19.9132 15.2812 19.5042 16 18.9875 16.625L27.125 24.5L25.3167 26.25ZM12.2708 17.5C13.8854 17.5 15.258 16.9533 16.3887 15.86C17.5193 14.7667 18.0842 13.4383 18.0833 11.875C18.0833 10.3125 17.5184 8.98458 16.3887 7.89125C15.2589 6.79792 13.8863 6.25083 12.2708 6.25C10.6562 6.25 9.28407 6.79708 8.15429 7.89125C7.02451 8.98542 6.45919 10.3133 6.45833 11.875C6.45833 13.4375 7.02365 14.7658 8.15429 15.86C9.28493 16.9542 10.6571 17.5008 12.2708 17.5Z" fill="white"/>
</svg>
