<svg width="667" height="529" viewBox="0 0 667 529" fill="none" xmlns="http://www.w3.org/2000/svg">
<path d="M80.7341 521.385C-101.767 474.758 71.3003 224.407 153.05 144.215C326.348 -16.7206 421.753 -0.575814 473.512 2.19637C743.26 16.6439 943.251 401.134 743.977 385.578C373.472 356.655 263.508 568.082 80.7341 521.385Z" fill="url(#paint0_radial_225_80)"/>
<path d="M80.7341 521.385C-101.767 474.758 71.3003 224.407 153.05 144.215C326.348 -16.7206 421.753 -0.575814 473.512 2.19637C743.26 16.6439 943.251 401.134 743.977 385.578C373.472 356.655 263.508 568.082 80.7341 521.385Z" fill="url(#paint1_radial_225_80)"/>
<path d="M80.7341 521.385C-101.767 474.758 71.3003 224.407 153.05 144.215C326.348 -16.7206 421.753 -0.575814 473.512 2.19637C743.26 16.6439 943.251 401.134 743.977 385.578C373.472 356.655 263.508 568.082 80.7341 521.385Z" fill="url(#paint2_radial_225_80)" style="mix-blend-mode:hard-light"/>
<path d="M80.7341 521.385C-101.767 474.758 71.3003 224.407 153.05 144.215C326.348 -16.7206 421.753 -0.575814 473.512 2.19637C743.26 16.6439 943.251 401.134 743.977 385.578C373.472 356.655 263.508 568.082 80.7341 521.385Z" fill="url(#paint3_radial_225_80)"/>
<defs>
<radialGradient id="paint0_radial_225_80" cx="0" cy="0" r="1" gradientUnits="userSpaceOnUse" gradientTransform="translate(658.418 -30.7054) rotate(110.764) scale(826.466 1083.73)">
<stop stop-color="#4C00AC"/>
<stop offset="0.264564" stop-color="white" stop-opacity="0.588342"/>
<stop offset="1" stop-color="#DA89E7" stop-opacity="0.367184"/>
<stop offset="1" stop-color="#E339FF" stop-opacity="0.62"/>
<stop offset="1" stop-color="white" stop-opacity="0"/>
</radialGradient>
<radialGradient id="paint1_radial_225_80" cx="0" cy="0" r="1" gradientUnits="userSpaceOnUse" gradientTransform="translate(86.1853 255.213) rotate(5.64915) scale(594.962 478.819)">
<stop stop-color="#FF0000"/>
<stop offset="1" stop-opacity="0"/>
</radialGradient>
<radialGradient id="paint2_radial_225_80" cx="0" cy="0" r="1" gradientUnits="userSpaceOnUse" gradientTransform="translate(161.557 525.302) rotate(-51.7373) scale(1047.4 1911.06)">
<stop stop-color="white"/>
<stop offset="0.292026" stop-color="#D375FF" stop-opacity="0.902202"/>
<stop offset="1" stop-color="#1E00D7" stop-opacity="0"/>
</radialGradient>
<radialGradient id="paint3_radial_225_80" cx="0" cy="0" r="1" gradientUnits="userSpaceOnUse" gradientTransform="translate(882.107 223.178) rotate(-161.695) scale(572.866 356.245)">
<stop stop-color="#00FFC2"/>
<stop offset="1" stop-color="#206CFF" stop-opacity="0"/>
</radialGradient>
</defs>
</svg>
