<svg width="388" height="741" viewBox="0 0 388 741" fill="none" xmlns="http://www.w3.org/2000/svg">
<path d="M315.288 659.258C477.863 445.216 348.393 130.194 86.0885 24.3714C-160.298 -75.0289 -175.166 155.285 -202.029 380.934C-239.657 697.013 174.324 844.848 315.288 659.258Z" fill="url(#paint0_radial_225_93)"/>
<path d="M315.288 659.258C477.863 445.216 348.393 130.194 86.0885 24.3714C-160.298 -75.0289 -175.166 155.285 -202.029 380.934C-239.657 697.013 174.324 844.848 315.288 659.258Z" fill="url(#paint1_radial_225_93)"/>
<path d="M315.288 659.258C477.863 445.216 348.393 130.194 86.0885 24.3714C-160.298 -75.0289 -175.166 155.285 -202.029 380.934C-239.657 697.013 174.324 844.848 315.288 659.258Z" fill="url(#paint2_radial_225_93)"/>
<path d="M315.288 659.258C477.863 445.216 348.393 130.194 86.0885 24.3714C-160.298 -75.0289 -175.166 155.285 -202.029 380.934C-239.657 697.013 174.324 844.848 315.288 659.258Z" fill="url(#paint3_radial_225_93)"/>
<defs>
<radialGradient id="paint0_radial_225_93" cx="0" cy="0" r="1" gradientUnits="userSpaceOnUse" gradientTransform="translate(256.813 401.7) rotate(163.468) scale(419.927 464.823)">
<stop stop-color="#00FFFF"/>
<stop offset="1" stop-color="#00C4FF" stop-opacity="0"/>
</radialGradient>
<radialGradient id="paint1_radial_225_93" cx="0" cy="0" r="1" gradientUnits="userSpaceOnUse" gradientTransform="translate(25.0464 233.368) rotate(47.5449) scale(489.127 382.237)">
<stop stop-color="#FF6666"/>
<stop offset="0.695057" stop-color="#FF00B8" stop-opacity="0.239583"/>
<stop offset="1" stop-color="#0052CD" stop-opacity="0"/>
</radialGradient>
<radialGradient id="paint2_radial_225_93" cx="0" cy="0" r="1" gradientUnits="userSpaceOnUse" gradientTransform="translate(130.915 762.687) rotate(-87.8095) scale(443.275 352.356)">
<stop stop-color="#620CE1"/>
<stop offset="1" stop-color="#620CE1" stop-opacity="0"/>
</radialGradient>
<radialGradient id="paint3_radial_225_93" cx="0" cy="0" r="1" gradientUnits="userSpaceOnUse" gradientTransform="translate(-40.5667 -173.411) rotate(69.7338) scale(576.667 539.876)">
<stop stop-color="#FF00E5"/>
<stop offset="0.228083" stop-color="#FF00E5" stop-opacity="0.771917"/>
<stop offset="1" stop-color="white" stop-opacity="0"/>
</radialGradient>
</defs>
</svg>
