<svg width="31" height="31" viewBox="0 0 31 31" fill="none" xmlns="http://www.w3.org/2000/svg">
<g clip-path="url(#clip0_264_4925)">
<path d="M15.5 30.7207C11.3891 30.7207 7.44666 29.1024 4.53984 26.2218C1.63303 23.3412 0 19.4342 0 15.3604C0 11.2865 1.63303 7.37958 4.53984 4.49895C7.44666 1.61832 11.3891 0 15.5 0C19.6109 0 23.5533 1.61832 26.4602 4.49895C29.367 7.37958 31 11.2865 31 15.3604C31 19.4342 29.367 23.3412 26.4602 26.2218C23.5533 29.1024 19.6109 30.7207 15.5 30.7207ZM15.5 27.6487C18.7887 27.6487 21.9427 26.354 24.2681 24.0495C26.5936 21.745 27.9 18.6194 27.9 15.3604C27.9 12.1013 26.5936 8.97573 24.2681 6.67123C21.9427 4.36673 18.7887 3.07207 15.5 3.07207C12.2113 3.07207 9.05733 4.36673 6.73188 6.67123C4.40642 8.97573 3.1 12.1013 3.1 15.3604C3.1 18.6194 4.40642 21.745 6.73188 24.0495C9.05733 26.354 12.2113 27.6487 15.5 27.6487ZM23.25 13.8243V16.8964H7.75V13.8243H23.25Z" fill="#CCCCCC"/>
</g>
<defs>
<clipPath id="clip0_264_4925">
<rect width="31" height="30.7207" fill="white"/>
</clipPath>
</defs>
</svg>
