<svg width="60" height="60" viewBox="0 0 60 60" fill="none" xmlns="http://www.w3.org/2000/svg">
<path fill-rule="evenodd" clip-rule="evenodd" d="M18.3624 10.0425C26.0971 9.1852 33.9028 9.1852 41.6374 10.0425C45.9199 10.5225 49.3749 13.895 49.8774 18.1925C50.7949 26.0375 50.7949 33.9626 49.8774 41.8075C49.3749 46.105 45.9199 49.4775 41.6374 49.9575C33.9028 50.815 26.0971 50.815 18.3624 49.9575C14.0799 49.4775 10.6249 46.105 10.1224 41.8075C9.20496 33.9634 9.20496 26.0391 10.1224 18.195C10.3766 16.1072 11.3284 14.1664 12.8235 12.6872C14.3186 11.2079 16.2695 10.2769 18.3599 10.045M29.9999 17.5175C30.4972 17.5175 30.9741 17.7151 31.3257 18.0667C31.6774 18.4183 31.8749 18.8953 31.8749 19.3925V28.125H40.6074C41.1047 28.125 41.5816 28.3226 41.9333 28.6742C42.2849 29.0258 42.4824 29.5028 42.4824 30C42.4824 30.4973 42.2849 30.9742 41.9333 31.3259C41.5816 31.6775 41.1047 31.875 40.6074 31.875H31.8749V40.6075C31.8749 41.1048 31.6774 41.5817 31.3257 41.9334C30.9741 42.285 30.4972 42.4825 29.9999 42.4825C29.5026 42.4825 29.0257 42.285 28.6741 41.9334C28.3225 41.5817 28.1249 41.1048 28.1249 40.6075V31.875H19.3924C18.8951 31.875 18.4182 31.6775 18.0666 31.3259C17.715 30.9742 17.5174 30.4973 17.5174 30C17.5174 29.5028 17.715 29.0258 18.0666 28.6742C18.4182 28.3226 18.8951 28.125 19.3924 28.125H28.1249V19.3925C28.1249 18.8953 28.3225 18.4183 28.6741 18.0667C29.0257 17.7151 29.5026 17.5175 29.9999 17.5175Z" fill="#F8F8F8"/>
</svg>
