<svg width="60" height="65" viewBox="0 0 60 65" fill="none" xmlns="http://www.w3.org/2000/svg">
<path d="M30 10.8333C32.6522 10.8333 35.1957 11.9746 37.0711 14.0063C38.9464 16.0379 40 18.7934 40 21.6666C40 24.5398 38.9464 27.2953 37.0711 29.3269C35.1957 31.3586 32.6522 32.4999 30 32.4999C27.3478 32.4999 24.8043 31.3586 22.9289 29.3269C21.0536 27.2953 20 24.5398 20 21.6666C20 18.7934 21.0536 16.0379 22.9289 14.0063C24.8043 11.9746 27.3478 10.8333 30 10.8333ZM30 37.9166C41.05 37.9166 50 42.7645 50 48.7499V54.1666H10V48.7499C10 42.7645 18.95 37.9166 30 37.9166Z" fill="white"/>
</svg>
