<svg width="31" height="31" viewBox="0 0 31 31" fill="none" xmlns="http://www.w3.org/2000/svg">
<path d="M15.5 0C6.95354 0 0 6.89073 0 15.36C0 23.8293 6.95354 30.72 15.5 30.72C24.0465 30.72 31 23.8293 31 15.36C31 6.89073 24.0465 0 15.5 0ZM15.5 2.36308C22.7576 2.36308 28.6154 8.16798 28.6154 15.36C28.6154 22.552 22.7576 28.3569 15.5 28.3569C8.24242 28.3569 2.38462 22.552 2.38462 15.36C2.38462 8.16798 8.24242 2.36308 15.5 2.36308ZM14.3077 8.27077V14.1785H8.34615V16.5415H14.3077V22.4492H16.6923V16.5415H22.6538V14.1785H16.6923V8.27077H14.3077Z" fill="#CCCCCC"/>
</svg>
